<?xml version="1.0" encoding="UTF-8" standalone="no"?>
<!-- Created with Inkscape (http://www.inkscape.org/) -->

<svg
   xmlns:dc="http://purl.org/dc/elements/1.1/"
   xmlns:cc="http://creativecommons.org/ns#"
   xmlns:rdf="http://www.w3.org/1999/02/22-rdf-syntax-ns#"
   xmlns:svg="http://www.w3.org/2000/svg"
   xmlns="http://www.w3.org/2000/svg"
   xmlns:sodipodi="http://sodipodi.sourceforge.net/DTD/sodipodi-0.dtd"
   xmlns:inkscape="http://www.inkscape.org/namespaces/inkscape"
   width="400"
   height="266.9903"
   id="svg2"
   version="1.1"
   inkscape:version="0.48.4 r9939"
   sodipodi:docname="LDYC.svg">
  <defs
     id="defs4" />
  <sodipodi:namedview
     id="base"
     pagecolor="#ffffff"
     bordercolor="#666666"
     borderopacity="1.0"
     inkscape:pageopacity="0.0"
     inkscape:pageshadow="2"
     inkscape:zoom="1.4"
     inkscape:cx="61.701104"
     inkscape:cy="172.71267"
     inkscape:document-units="px"
     inkscape:current-layer="layer3"
     showgrid="false"
     fit-margin-top="0"
     fit-margin-left="0"
     fit-margin-right="0"
     fit-margin-bottom="0"
     showguides="true"
     inkscape:guide-bbox="true"
     inkscape:window-width="1920"
     inkscape:window-height="1018"
     inkscape:window-x="1912"
     inkscape:window-y="-8"
     inkscape:window-maximized="1" />
  <metadata
     id="metadata7">
    <rdf:RDF>
      <cc:Work
         rdf:about="">
        <dc:format>image/svg+xml</dc:format>
        <dc:type
           rdf:resource="http://purl.org/dc/dcmitype/StillImage" />
        <dc:title></dc:title>
      </cc:Work>
    </rdf:RDF>
  </metadata>
  <g
     inkscape:label="Burgee"
     inkscape:groupmode="layer"
     id="layer1"
     transform="translate(-520.73366,-374.49236)"
     style="display:none">
    <path
       style="fill:#e11000;fill-opacity:1;stroke:none"
       d="m 520.73366,374.49236 0,266.99029 400.00001,-133.98057 z"
       id="path3864"
       inkscape:connector-curvature="0" />
  </g>
  <g
     inkscape:groupmode="layer"
     id="layer2"
     inkscape:label="Symbol"
     style="display:none">
    <path
       inkscape:connector-curvature="0"
       style="fill:#f3c516;fill-opacity:1;stroke:none"
       d="m 141.19537,64.949029 c -6.48087,0.0723 -11.48032,7.7554 -7.92921,20.72407 -21.75317,-17.45112 -30.33029,7.3208 -18.20114,13.0952 -9.71628,10.361511 4.90606,26.831671 18.92198,11.893811 -4.17338,13.7259 -0.28632,27.84015 -3.1837,38.62486 -5.93781,-7.33834 -25.70359,-13.23565 -36.64255,-13.87612 21.19518,-7.53592 7.31815,-27.38294 -3.60419,-22.28588 -5.09708,-15.048541 -26.95853,-10.3041 -20.42371,12.37437 -15.0378,-13.67181 -32.0361,1.68013 -18.20114,13.81605 -11.16503,10.92233 -0.68028,25.61541 17.72058,12.85492 -3.39756,14.83942 11.44068,28.41819 20.664,9.97158 11.16505,5.82525 24.25514,-12.87165 4.5653,-21.62511 6.58791,0.0919 27.39103,3.93796 34.23976,14.35667 -0.73359,24.07577 -19.07827,41.93851 -31.29635,44.87211 0.28157,1.60049 -0.13705,5.8189 0.24028,7.26844 25.22557,-3.76533 35.39051,-35.49523 37.36339,-52.14055 4.63414,-5.0399 24.45546,-7.35976 29.37411,1.2014 -14.99397,-3.87399 -27.3278,9.06144 -10.9327,17.72058 -6.98414,18.49027 11.81875,17.62344 18.44142,5.82676 1.61654,11.40947 18.35103,23.20284 19.94316,2.88335 9.1306,0.98505 23.56229,-12.95156 -3.1837,-20.60393 12.9385,-8.27757 14.61684,-27.33381 -5.58649,-19.40253 -7.78679,-10.10688 -21.32841,-9.42916 -17.4803,10.87263 -6.92278,-6.68028 -20.42954,-8.43487 -30.81578,-3.36391 2.81532,-8.44761 -0.69556,-29.387 3.66426,-36.16199 -1.10075,12.97345 13.81512,26.33996 19.40253,3.60419 21.17934,2.99739 17.53481,-20.455511 -0.48056,-23.006721 15.77512,-5.50129 15.76874,-23.77372 -4.86565,-20.90427 -3.41114,-5.93051 -7.82508,-8.63336 -11.7136,-8.58998 z m 9.1306,13.39556 c 0.14878,-0.0327 0.30986,0.004 0.42049,0.06 0.88509,0.45515 0.10034,3.68602 -1.74203,7.26844 -1.84244,3.58245 -4.04062,6.16183 -4.92572,5.70663 -0.88507,-0.45513 -0.1605,-3.74607 1.68196,-7.32851 1.61213,-3.13462 3.52397,-5.47736 4.5653,-5.70663 z m -21.62511,18.44141 c 4.02844,0 7.26842,0.80682 7.26844,1.80209 0,0.99526 -3.24,1.802101 -7.26844,1.802101 -4.02848,0 -7.32849,-0.806821 -7.32851,-1.802101 0,-0.99525 3.30005,-1.80211 7.32851,-1.80209 z m 16.8796,5.646561 c 1.06616,0.0154 3.43662,1.87923 5.64655,4.62537 2.52564,3.13839 3.899,6.22398 3.12363,6.84795 -0.77537,0.624 -3.42126,-1.42685 -5.9469,-4.5653 -2.52564,-3.13839 -3.95907,-6.16389 -3.1837,-6.78788 0.0969,-0.078 0.2081,-0.12226 0.36042,-0.12014 z m -58.14752,15.61813 c 0.14878,-0.0327 0.30986,0.004 0.42049,0.06 0.88511,0.45514 0.10034,3.74608 -1.74203,7.32851 -1.84246,3.58244 -4.1007,6.10176 -4.98579,5.64655 -0.88509,-0.45514 -0.10034,-3.74606 1.74203,-7.32851 1.61215,-3.13462 3.52397,-5.47734 4.5653,-5.70662 z M 64.0658,136.85253 c 4.02844,0 7.26844,0.80683 7.26844,1.80209 2e-5,0.99527 -3.23998,1.80211 -7.26844,1.80209 -4.02846,2e-5 -7.26844,-0.80684 -7.26844,-1.80209 -2e-5,-0.99527 3.23998,-1.80211 7.26844,-1.80209 z m 16.15877,8.10941 c 1.06616,0.0154 3.37655,1.93932 5.58648,4.68544 2.52566,3.13841 3.95905,6.16391 3.1837,6.78789 -0.77539,0.62397 -3.48132,-1.42688 -6.00697,-4.5653 -2.52566,-3.13843 -3.89902,-6.16391 -3.12363,-6.78789 0.0969,-0.078 0.2081,-0.12225 0.36042,-0.12014 z m 101.75816,2.22258 c 0.14378,-0.0502 0.3039,-0.0434 0.42049,0 0.9327,0.34735 0.50483,3.67349 -0.90105,7.44865 -1.40588,3.77517 -3.27218,6.59461 -4.20488,6.24726 -0.93269,-0.34733 -0.56491,-3.67348 0.84097,-7.44865 1.23016,-3.30328 2.83755,-5.89645 3.84447,-6.24726 z m -13.21535,19.10219 c 0.83712,-0.0231 1.42405,0.13378 1.56182,0.48055 0.36735,0.925 -2.38309,2.89819 -6.12712,4.3851 -3.74401,1.48692 -7.08129,1.94618 -7.44865,1.02118 -0.36734,-0.92498 2.38311,-2.89817 6.12712,-4.38509 2.34001,-0.92932 4.49164,-1.46343 5.88683,-1.50174 z m 10.21186,2.52293 c 1.05163,-0.17608 3.64152,1.298 6.30732,3.60418 3.04663,2.63563 4.97616,5.37443 4.32503,6.12712 -0.65116,0.75268 -3.62112,-0.78835 -6.66775,-3.42398 -3.04664,-2.63563 -4.97615,-5.37443 -4.32502,-6.12711 0.0813,-0.094 0.21018,-0.15513 0.36042,-0.18012 z"
       id="path2996" />
  </g>
  <g
     inkscape:groupmode="layer"
     id="layer3"
     inkscape:label="Watermark">
    <path
       style="fill:#000000;fill-opacity:1;stroke:none;opacity:0.03"
       d="M 0 0 L 0 267 L 400 133 L 0 0 z M 141.1875 64.9375 C 145.07602 64.89412 149.49511 67.60074 152.90625 73.53125 C 173.54064 70.6618 173.55637 88.93621 157.78125 94.4375 C 175.79662 96.98871 179.42934 120.43489 158.25 117.4375 C 152.66259 140.17327 137.743 126.8172 138.84375 113.84375 C 134.48393 120.61874 138.00282 141.55239 135.1875 150 C 145.57374 144.92904 159.07722 146.69472 166 153.375 C 162.15189 133.07321 175.71321 132.39312 183.5 142.5 C 203.70333 134.56872 202.001 153.62868 189.0625 161.90625 C 215.80849 169.55862 201.3806 183.48505 192.25 182.5 C 190.65787 202.81949 173.92904 191.03447 172.3125 179.625 C 165.68983 191.42168 146.89086 192.27152 153.875 173.78125 C 137.4799 165.12211 149.81853 152.18851 164.8125 156.0625 C 159.89385 147.50134 140.07164 149.8351 135.4375 154.875 C 133.46462 171.52032 123.28807 203.23467 98.0625 207 C 97.68517 205.55046 98.09407 201.35049 97.8125 199.75 C 110.03058 196.8164 128.39141 178.95077 129.125 154.875 C 122.27627 144.45629 101.46291 140.62315 94.875 140.53125 C 114.56484 149.28471 101.47755 167.9815 90.3125 162.15625 C 81.08918 180.60286 66.25869 166.99567 69.65625 152.15625 C 51.25539 164.91674 40.77247 150.23483 51.9375 139.3125 C 38.10254 127.17658 55.0872 111.82819 70.125 125.5 C 63.59018 102.82153 85.46542 98.076454 90.5625 113.125 C 101.48484 108.02794 115.35143 127.87033 94.15625 135.40625 C 105.09521 136.04672 124.87469 141.94291 130.8125 149.28125 C 133.70988 138.49654 129.82662 124.38215 134 110.65625 C 119.98408 125.59411 105.34622 109.14277 115.0625 98.78125 C 102.93335 93.00685 111.52808 68.23638 133.28125 85.6875 C 129.73014 72.71883 134.70663 65.0098 141.1875 64.9375 z M 150.3125 78.34375 C 149.27117 78.57302 147.36213 80.92788 145.75 84.0625 C 143.90754 87.64494 143.20868 90.91987 144.09375 91.375 C 144.97885 91.8302 147.15756 89.26995 149 85.6875 C 150.84237 82.10508 151.63509 78.8614 150.75 78.40625 C 150.63937 78.35025 150.46128 78.31105 150.3125 78.34375 z M 128.6875 96.78125 C 124.65904 96.78123 121.375 97.5985 121.375 98.59375 C 121.37502 99.58903 124.65902 100.375 128.6875 100.375 C 132.71594 100.375 135.96875 99.58901 135.96875 98.59375 C 135.96873 97.59848 132.71594 96.78125 128.6875 96.78125 z M 145.59375 102.4375 C 145.44143 102.43538 145.31565 102.4845 145.21875 102.5625 C 144.44338 103.18649 145.88061 106.20536 148.40625 109.34375 C 150.93189 112.4822 153.56838 114.53025 154.34375 113.90625 C 155.11912 113.28228 153.74439 110.20089 151.21875 107.0625 C 149.00882 104.31636 146.65991 102.4529 145.59375 102.4375 z M 87.4375 118.0625 C 86.39617 118.29178 84.48715 120.61538 82.875 123.75 C 81.03263 127.33245 80.23991 130.63861 81.125 131.09375 C 82.01009 131.54896 84.28254 129.01994 86.125 125.4375 C 87.96737 121.85507 88.72886 118.58014 87.84375 118.125 C 87.73312 118.069 87.58628 118.0298 87.4375 118.0625 z M 64.0625 136.84375 C 60.03404 136.84373 56.81248 137.66098 56.8125 138.65625 C 56.8125 139.6515 60.03404 140.46877 64.0625 140.46875 C 68.09096 140.46877 71.34377 139.65152 71.34375 138.65625 C 71.34375 137.66099 68.09094 136.84375 64.0625 136.84375 z M 80.21875 144.96875 C 80.06643 144.96664 79.9719 145.01575 79.875 145.09375 C 79.09961 145.71773 80.47434 148.73657 83 151.875 C 85.52565 155.01342 88.22461 157.06147 89 156.4375 C 89.77535 155.81352 88.33816 152.79466 85.8125 149.65625 C 83.60257 146.91013 81.28491 144.98415 80.21875 144.96875 z M 182.21875 147.15625 C 182.14617 147.1554 182.04064 147.1624 181.96875 147.1875 C 180.96183 147.53831 179.35516 150.13422 178.125 153.4375 C 176.71912 157.21267 176.37981 160.52767 177.3125 160.875 C 178.2452 161.22235 180.09412 158.40017 181.5 154.625 C 182.90588 150.84984 183.33895 147.53485 182.40625 147.1875 C 182.34796 147.1658 182.29133 147.1571 182.21875 147.15625 z M 168.78125 166.28125 C 167.38606 166.31956 165.21501 166.85193 162.875 167.78125 C 159.13099 169.26817 156.38266 171.26252 156.75 172.1875 C 157.11736 173.1125 160.44349 172.64317 164.1875 171.15625 C 167.93153 169.66934 170.7111 167.70625 170.34375 166.78125 C 170.20598 166.43448 169.61837 166.25815 168.78125 166.28125 z M 178.96875 168.8125 C 178.81851 168.83749 178.7063 168.906 178.625 169 C 177.97387 169.75268 179.89086 172.48937 182.9375 175.125 C 185.98413 177.76063 188.97384 179.28393 189.625 178.53125 C 190.27613 177.77856 188.32788 175.04188 185.28125 172.40625 C 182.61545 170.10007 180.02038 168.63642 178.96875 168.8125 z "
       id="path3864-8"
       inkscape:export-filename="../burgees/ldyc-watermark.png"
       inkscape:export-xdpi="90"
       inkscape:export-ydpi="90" />
  </g>
</svg>
